<svg height="800" viewBox="0 0 512 512" width="800" xmlns="http://www.w3.org/2000/svg"><g transform="translate(0 -1)"><path d="m179.198 333.803c-23.526 0-42.667 19.14-42.667 42.667 0 23.526 19.14 42.667 42.667 42.667 23.526 0 42.667-19.14 42.667-42.667 0-23.526-19.141-42.667-42.667-42.667z"/><path d="m492.432 238.286-155.494-155.494c-1.348-1.348-2.825-2.534-4.284-3.738l-.205-.947c-.614-2.859-1.246-5.717-1.971-8.559-4.437-29.611-28.049-53.043-57.668-57.276-27.213-7.688-55.51-11.374-84.66-11.187-.145-.008-.273-.085-.418-.085-.205 0-.375.111-.58.119-27.418.265-55.586 3.917-84.361 11.136-29.696 4.181-53.359 27.648-57.813 57.301-5.675 22.622-2.15 49.698 1.587 78.336 1.954 15.053 3.994 30.609 4.48 45.09.887 26.351-2.065 51.874-8.781 75.853-2.278 8.124-5.931 16.811-9.805 26.001-7.569 17.954-15.394 36.514-15.394 56.03.001 100.011 60.493 162.134 157.867 162.134 68.497 0 127.454-48.017 152.934-116.403.017-.034.043-.051.06-.085.034-.094.051-.196.094-.29 2.133-5.777 4.036-11.699 5.692-17.749.026-.094.051-.179.077-.273 1.638-6.042 3.029-12.211 4.147-18.492.026-.154.043-.307.068-.452 1.075-6.127 1.911-12.365 2.466-18.688.017-.145.017-.299.034-.444.538-6.289.828-12.663.828-19.123 0-23.595-3.763-46.788-11.187-68.992l1.118-5.939 76.698 76.698c1.664 1.664 3.849 2.492 6.033 2.492 2.176 0 4.361-.828 6.033-2.492 3.328-3.337 3.328-8.738 0-12.075l-88.09-88.081c-.017-.017-.017-.026-.034-.043l-2.074-2.082c-.017-.026-.051-.034-.077-.06l-65.22-65.22c-5.854-5.854-9.634-13.244-11.341-21.103-.222-.998-.529-1.971-.674-2.978l30.114 30.114c1.596 1.596 3.763 2.5 6.033 2.5s4.437-.905 6.033-2.5l36.207-36.207c1.604-1.604 2.5-3.772 2.5-6.033 0-2.27-.896-4.437-2.5-6.033l-30.114-30.124c2.039.299 4.045.785 6.016 1.365.555.162 1.101.358 1.647.546 1.348.461 2.679 1.007 3.985 1.596.708.324 1.417.648 2.108 1.015 1.101.572 2.142 1.237 3.191 1.903.649.427 1.331.794 1.971 1.263.043.034.094.043.145.077 1.758 1.28 3.456 2.688 5.018 4.25l155.494 155.494c3.328 3.337 8.73 3.337 12.066 0 3.338-3.327 3.338-8.729.001-12.066zm-181.06-170.496c-1.306-.375-2.62-.674-3.951-.956-1.357-.299-2.705-.606-4.087-.811-1.314-.196-2.645-.273-3.977-.375-1.357-.111-2.697-.256-4.062-.273-1.655-.017-3.319.128-4.983.247-1.024.077-2.057.077-3.089.205-1.254.154-2.5.461-3.755.708-13.116-8.508-31.778-7.108-43.068 4.19-6.451 6.443-10.001 15.019-10.001 24.132 0 6.878 2.031 13.449 5.794 19.021-.58 3.055-.947 6.11-1.05 9.173-.529 16.333 5.547 32.444 17.323 44.22l61.09 61.09c-1.434 3.123-2.927 6.366-4.523 9.83-32.094 69.478-59.025 133.922-36.395 159.113 5.606 6.238 13.585 9.361 23.842 9.361 2.782 0 5.794-.316 8.917-.777-25.54 53.641-74.419 90.044-130.466 90.044-84.949 0-136.764-50.449-140.442-135.373 7.475 2.577 14.345 4.002 20.463 4.002 8.363 0 15.437-2.406 21.163-7.219 27.716-23.253 12.501-94.447-8.201-168.09-.674-14.336-2.552-29.167-4.429-43.563-3.541-27.162-6.878-52.813-1.86-72.337.068-.307.128-.606.179-.913 3.219-22.509 21.199-40.326 43.735-43.339.324-.034.648-.102.956-.179 24.781-6.246 49.024-9.617 72.704-10.462v52.386c-9.916 3.533-17.067 12.911-17.067 24.021v68.267c0 11.11 7.151 20.497 17.067 24.03v44.237c0 4.719 3.814 8.533 8.533 8.533s8.533-3.814 8.533-8.533v-44.237c9.907-3.533 17.067-12.919 17.067-24.03v-68.266c0-11.11-7.159-20.489-17.067-24.021v-52.549c24.909.495 49.135 3.917 72.448 10.556.393.111.802.196 1.212.247 21.077 2.816 38.178 18.594 42.931 39.057-.486-.162-.998-.222-1.484-.367z"/><path d="m388.565 183.12c-3.336-3.337-8.73-3.337-12.066 0l-24.132 24.141c-3.337 3.336-3.337 8.738 0 12.066 1.664 1.664 3.849 2.5 6.033 2.5 2.185 0 4.369-.836 6.033-2.5l24.132-24.141c3.337-3.336 3.337-8.729-0-12.066z"/><path d="m383.781 247.212c2.185 0 4.369-.836 6.033-2.5l24.141-24.132c3.336-3.337 3.336-8.738 0-12.066-3.328-3.337-8.73-3.337-12.066 0l-24.141 24.132c-3.337 3.336-3.337 8.73 0 12.066 1.664 1.664 3.849 2.5 6.033 2.5z"/></g></svg>